<svg width="80" height="80" viewBox="0 0 80 80" fill="none" xmlns="http://www.w3.org/2000/svg">
<rect x="1.5" y="1.5" width="77" height="77" rx="8.5" stroke="#ffffff" stroke-width="3"/>
<path fill-rule="evenodd" clip-rule="evenodd" d="M51.1998 33.6001C55.6181 33.6001 59.1998 30.0184 59.1998 25.6001C59.1998 21.1818 55.6181 17.6001 51.1998 17.6001C46.7815 17.6001 43.1998 21.1818 43.1998 25.6001C43.1998 30.0184 46.7815 33.6001 51.1998 33.6001ZM33.9299 37.1001C32.0055 33.7668 27.1942 33.7668 25.2697 37.1001L9.68124 64.1001C7.75674 67.4334 10.1624 71.6001 14.0114 71.6001H45.1883C45.2251 71.6001 45.2617 71.5997 45.2983 71.599C45.3821 71.6624 45.4866 71.7001 45.5998 71.7001H68.3789C68.7333 71.7001 69.0829 71.6176 69.3999 71.4591C69.7553 71.2814 70.0581 71.014 70.2785 70.6835L70.2974 70.6552C70.7101 70.0361 70.8139 69.2611 70.5786 68.5553L70.4742 68.242C70.4099 68.0493 70.2397 67.9217 70.0499 67.9025C70.0092 67.4975 69.8829 67.0893 69.6582 66.7001L60.9979 51.7001C59.8432 49.7001 56.9564 49.7001 55.8017 51.7001L49.0805 63.3416L33.9299 37.1001ZM48.074 70.7001H48.0613L48.0674 70.6957L48.074 70.7001ZM68.9527 70.5646C68.9205 70.5807 68.8878 70.5954 68.8545 70.6087C69.1736 70.3692 69.44 70.0688 69.6408 69.7297C69.6012 69.8597 69.5425 69.9847 69.4653 70.1005L69.4465 70.1288C69.3226 70.3145 69.1524 70.4648 68.9527 70.5646Z" fill="#ffffff"/>
</svg>
